<svg width="400" height="300" viewBox="0 0 400 300" fill="none" xmlns="http://www.w3.org/2000/svg">
  <rect width="400" height="300" fill="url(#bg-gradient)"/>
  
  <!-- Background Pattern -->
  <g opacity="0.1">
    <circle cx="50" cy="50" r="20" fill="#3B82F6"/>
    <circle cx="350" cy="80" r="15" fill="#8B5CF6"/>
    <circle cx="80" cy="250" r="25" fill="#10B981"/>
    <circle cx="320" cy="220" r="18" fill="#F59E0B"/>
  </g>
  
  <!-- Main Illustration -->
  <g transform="translate(100, 50)">
    <!-- Computer Screen -->
    <rect x="20" y="40" width="160" height="100" rx="8" fill="#1F2937" stroke="#374151" stroke-width="2"/>
    <rect x="30" y="50" width="140" height="80" rx="4" fill="#111827"/>
    
    <!-- Screen Content -->
    <rect x="40" y="60" width="120" height="8" rx="4" fill="#3B82F6"/>
    <rect x="40" y="75" width="80" height="6" rx="3" fill="#6B7280"/>
    <rect x="40" y="88" width="100" height="6" rx="3" fill="#6B7280"/>
    <rect x="40" y="101" width="60" height="6" rx="3" fill="#6B7280"/>
    
    <!-- Stand -->
    <rect x="90" y="140" width="20" height="30" fill="#374151"/>
    <rect x="70" y="170" width="60" height="8" rx="4" fill="#374151"/>
    
    <!-- Floating Elements -->
    <circle cx="220" cy="70" r="12" fill="#3B82F6" opacity="0.8"/>
    <rect x="210" y="110" width="20" height="20" rx="4" fill="#10B981" opacity="0.8"/>
    <path d="M235 140 L245 150 L255 140" stroke="#F59E0B" stroke-width="3" stroke-linecap="round" fill="none" opacity="0.8"/>
  </g>
  
  <defs>
    <linearGradient id="bg-gradient" x1="0%" y1="0%" x2="100%" y2="100%">
      <stop offset="0%" stop-color="#F8FAFC"/>
      <stop offset="100%" stop-color="#E2E8F0"/>
    </linearGradient>
  </defs>
</svg>