<svg width="400" height="300" viewBox="0 0 400 300" fill="none" xmlns="http://www.w3.org/2000/svg">
  <!-- Background -->
  <rect width="400" height="300" fill="url(#login-bg)"/>
  
  <!-- Decorative Elements -->
  <circle cx="50" cy="50" r="30" fill="#3B82F6" opacity="0.1"/>
  <circle cx="350" cy="100" r="40" fill="#8B5CF6" opacity="0.1"/>
  <circle cx="80" cy="220" r="25" fill="#10B981" opacity="0.1"/>
  
  <!-- Main Form Illustration -->
  <g transform="translate(150, 75)">
    <!-- Form Container -->
    <rect x="0" y="0" width="100" height="120" rx="12" fill="white" stroke="#E5E7EB" stroke-width="2"/>
    
    <!-- Form Fields -->
    <rect x="15" y="20" width="70" height="8" rx="4" fill="#F3F4F6"/>
    <rect x="15" y="35" width="50" height="8" rx="4" fill="#F3F4F6"/>
    
    <rect x="15" y="55" width="70" height="8" rx="4" fill="#F3F4F6"/>
    <rect x="15" y="70" width="45" height="8" rx="4" fill="#F3F4F6"/>
    
    <!-- Submit Button -->
    <rect x="15" y="90" width="70" height="12" rx="6" fill="#3B82F6"/>
    
    <!-- User Icon -->
    <circle cx="50" cy="-20" r="15" fill="#E5E7EB"/>
    <circle cx="50" cy="-25" r="6" fill="#9CA3AF"/>
    <path d="M40 -10 Q50 -15 60 -10" stroke="#9CA3AF" stroke-width="2" fill="none"/>
  </g>
  
  <!-- Security Badge -->
  <g transform="translate(50, 180)">
    <circle cx="15" cy="15" r="15" fill="#10B981"/>
    <path d="M10 15 L13 18 L20 11" stroke="white" stroke-width="2" stroke-linecap="round"/>
  </g>
  
  <defs>
    <linearGradient id="login-bg" x1="0%" y1="0%" x2="100%" y2="100%">
      <stop offset="0%" stop-color="#DBEAFE"/>
      <stop offset="100%" stop-color="#BFDBFE"/>
    </linearGradient>
  </defs>
</svg>